<?xml version="1.0" encoding="utf-8"?>
<!-- Generator: Adobe Illustrator 23.0.3, SVG Export Plug-In . SVG Version: 6.00 Build 0)  -->
<svg version="1.1" id="Layer_1" xmlns="http://www.w3.org/2000/svg" xmlns:xlink="http://www.w3.org/1999/xlink" x="0px" y="0px"
	 viewBox="0 0 1920 500" style="enable-background:new 0 0 1920 500;" xml:space="preserve">
<style type="text/css">
	.st0{fill:#DBB372;}
	.st1{fill:#CD9A72;}
	.st2{fill:#4F4F4F;}
	.st3{fill:none;stroke:#FEFEFE;stroke-miterlimit:10;}
	.st4{fill:#010100;}
	.st5{fill:#573265;}
	.st6{fill:#6A686B;}
	.st7{fill:#161017;}
	.st8{fill:#4C3053;}
	.st9{fill:#532F60;}
	.st10{fill:#A052C1;}
	.st11{fill:#5D0B00;}
	.st12{fill:#808080;}
	.st13{fill:#0E090F;}
	.st14{fill:#A1A0A0;}
	.st15{fill:#9A9A9A;}
	.st16{fill:#A35ABB;}
	.st17{fill:#A2A2A2;}
	.st18{fill:#28110E;}
	.st19{fill:#573164;}
	.st20{fill:#280D0D;}
	.st21{fill:#1A181B;}
	.st22{fill:#5E4938;}
	.st23{fill:#512E5E;}
	.st24{fill:#5B0B00;}
	.st25{fill:#653974;}
	.st26{fill:#5E0B00;}
	.st27{fill:#DCDCDC;}
	.st28{fill:#B5B5B5;}
	.st29{fill:#7B5C44;}
	.st30{fill:#2A0504;}
	.st31{fill:#0D0A0E;}
	.st32{fill:#160811;}
	.st33{fill:#0A0708;}
	.st34{fill:#161317;}
	.st35{fill:#212022;}
	.st36{fill:#2F1F35;}
	.st37{fill:#181719;}
	.st38{fill:#5C3669;}
	.st39{fill:#9A57AF;}
	.st40{fill:#070507;}
	.st41{fill:#131014;}
	.st42{fill:#A75CBF;}
	.st43{fill:#A25ABA;}
	.st44{fill:#110C13;}
	.st45{fill:#020101;}
	.st46{fill:#2C1E30;}
	.st47{fill:#1A181A;}
	.st48{fill:#19121B;}
	.st49{fill:#610B00;}
	.st50{fill:#620B00;}
	.st51{fill:#EBEBEB;}
	.st52{fill:#CD9B72;}
	.st53{fill:#CC9972;}
	.st54{fill:#D4D4D4;}
	.st55{fill:#5C346A;}
	.st56{fill:#F6F6F6;}
	.st57{fill:#080706;}
	.st58{fill:#E55151;}
	.st59{fill:#FFFFFF;}
	.st60{fill:#F90000;stroke:#FFDA00;stroke-width:0.5;stroke-miterlimit:10;}
</style>
<rect x="1042.21" y="158.82" class="st0" width="10.43" height="4.22"/>
<path class="st1" d="M1029.08,173.09c0,0,4.28-15.15,8.14-10.31c3.85,4.85,6.63,2.86,2.6,8.86c-2.15,3.2,2.7,1.9-5.88,4.2
	L1029.08,173.09z"/>
<g>
	<path class="st2" d="M944.06,36.13c-8.38,4.35-16.36,10.84-25.24,12.48c-9.8,1.81-17.99,9.17-17.98,14.52
		c0.02,13.11-7.42,28.1,4.84,39.67c2.98,2.81,2.82,4.43-0.07,6.62c-3.29,1.17-6.58,2.33-9.87,3.5c0.34-0.5,0.68-1.01,1.02-1.51
		c15.06-10.76-0.82-22.49-0.21-33.89c1.1-20.65,13.37-25.81,27.02-34.48C930.53,38.59,939.04,43.07,944.06,36.13z"/>
	<path class="st3" d="M960.5,471c-71.83,0-143.67-0.03-215.5,0.1c-3.42,0.01-4.1-0.67-4.1-4.1c0.11-144,0.11-288,0-432
		c0-3.42,0.67-4.1,4.09-4.1c144,0.11,288,0.11,432,0c3.42,0,4.1,0.67,4.1,4.09c-0.11,144-0.11,288,0,432c0,3.42-0.67,4.1-4.09,4.1
		C1104.83,470.97,1032.67,471,960.5,471z"/>
	<path d="M956.91,467.87c-0.73-0.11-1.46-0.22-2.19-0.32c0.4-26.58,0.83-53.15,1.18-79.73c0.07-5.26-3.81-4.91-7.4-4.91
		c-3.59,0-7.47-0.35-7.4,4.91c0.36,26.58,0.78,53.15,1.18,79.73c-1.1,0.08-2.2,0.16-3.3,0.25c-2.38-11.54-11.07-37.68-11.07-37.68
		c-3.94-14.54-4.28-30.26-14.01-42.91c-7.92-1.79,5.03-4.18-0.51-8.94c-5.72-4.91-11.38-16.6-9.23-22.46
		c3.55-9.7,8.21-19.46,12.48-28.88c8.61-19.01,19.8-36.75,23.37-57.81l0.07-0.05c4.4,0.1,3.94-3.06,3.94-5.89
		c-0.01-28.7-0.03-57.4-0.04-86.11c1.83-1.01,3.6-2.57,5.53-2.79c0.99-0.11,3.23,2.14,3.26,3.37c1.07,39.26-4.08,79.04,8.69,117.25
		c1.72,5.16,0.1,16.23,11.66,15.1c9.59,13.3,6.02,32.61,20.04,43.88c-3.37,11.01-6.75,22.02-10.12,33.03
		c-10.59,12.45-12.6,28.52-16.25,43.23c-0.31-0.91,1.21-1.96,1.26-2.85c1.59-25.6,15.69-49.22,11.89-75.62
		c-0.29-2-2.41-3.73-3.68-5.59c-1.11,1.85-3.25,3.74-3.17,5.54c0.61,14.37-4.79,27.62-6.87,41.29
		c-1.84,12.08-14.65,25.85-0.01,38.32C963.11,443.43,960.01,455.65,956.91,467.87z M942.08,345.91c0,10.92,0.08,19.73-0.03,28.54
		c-0.06,4.48,2.27,5.62,6.28,5.64c4.14,0.02,6.73-0.95,6.65-5.78c-0.15-8.81,0.93-17.75-0.28-26.39
		c-1.67-11.93,6.31-33.65-6.23-33.48C935.47,314.59,945.59,336.34,942.08,345.91z"/>
	<path class="st4" d="M987.11,66.83l0.06,0.06c-7.77-2.45-15.53-4.9-23.3-7.35c-0.13,1.57-0.76,4.35-0.33,4.52
		c7.53,3.05,15.14,5.92,22.86,8.44c1.15,0.38,2.95-1.24,4.46-1.93C989.61,69.32,988.36,68.07,987.11,66.83z M915.4,62.45
		c-4.24,2.17-8.51,4.3-12.69,6.59c-0.29,0.16-0.05,2.14,0.14,2.17c2.68,0.48,5.88,1.87,8.02,0.93c10.76-4.75,21.54-8.86,33.62-7.92
		c0.63,0.05,1.38-1.51,2.07-2.32c-1.24-0.79-2.47-2.24-3.72-2.26C933.67,59.51,924.27,58.1,915.4,62.45z M924.3,79.42
		c-8.29-4.68-10.9,4.06-13.59,9.04c-3.23,6-0.56,11.43,4.4,16.16c1.74,1.66,1.56,5.37,2.14,8.16c0.06,0.28-0.69,0.72-1.06,1.09
		c-0.31-0.44-0.35,1.43-0.49,2.01c-0.06,0.24-1.25,8.26-1.25,8.26c0.21,1.13,0.78,4.3,3.68,4.92c-2.7,2.08-5.4,4.15-8.1,6.23
		c-7.4-6.82-0.28-16.06-3.93-23.51c-0.17-0.79-0.34-1.58-0.51-2.37c2.9-2.18,0.76-1.89-2.21-4.7c-12.26-11.57-2.53-28.48-2.55-41.59
		c-0.01-5.34,8.19-12.7,17.98-14.52c8.88-1.64,16.86-8.13,25.24-12.48c5.92,0.03,11.84,0.07,17.76,0.1
		c1.41,1.57,2.63,4.24,4.27,4.53c13.84,2.45,38.82,38.14,30.97,47.87c-16.27,20.17,4.68,23.07,11.88,32.53
		c-0.07,1.63-0.13,3.26-0.2,4.9c-1.92-1.63-3.81-3.3-5.75-4.89c-4.02-3.3-8.07-6.57-12.11-9.85c-0.62,3.39-0.78,6.95-1.98,10.12
		c-1.7,4.5,4.19,9.93-1.89,13.69c2.55-8.1-6.37-7.18-9-11.22c-0.13-0.2-1.96,0.71-3,1.1c-1.4,1.01-3.18,1.75-4.14,3.07
		c-2.81,3.88-6.1,7.71-7.69,12.11c-1.75,4.83,0.83,9.52,5.51,11.32c5.56,2.15,7.21-3.73,10.24-6.61c0.74,1.72,1.47,3.44,2.21,5.16
		c-9.11,9.98-24.56,19.07-26.09,30.1c-3.78,27.13-1.16,55.16-1.12,82.82c10.03,14.18,4.11,34.87,19.19,46.98
		c-11.56,1.13-9.94-9.95-11.66-15.1c-12.77-38.21-7.63-77.99-8.69-117.25c-0.03-1.23-2.27-3.48-3.26-3.37
		c-1.92,0.22-3.69,1.78-5.53,2.79c-4.07-3.29-8.15-6.58-12.22-9.87c-4.38-8.69-16.67-11.56-17.05-23.19
		c6.24,1.52,11.79,15.95,18.53,2.03c2.08-4.3-1.43-11.31-2.39-17.07c4.34,3.32,8.68,6.65,13.02,9.97
		c-10.82,10.39-18.92,21.43-1.34,32.37c12.16,7.57,15.69-7,23.32-11.11c0.6-0.32,0.49-3.86-0.43-4.8
		c-9.07-9.27-15.1-18.57,0.21-27.22c4.73-2.67,6.43-15.51,15.77-5.53c1.06,1.13,2.86,1.56,4.31,2.32c0.74-1.67,1.41-3.37,2.24-4.99
		c5.11-9.93-12.26-5.28-9.03-13.96c2.04-3.61,10.7-7.67,7.01-9.11c-8.9-3.48-24.21,0.91-11.9-16.91c-2.9-1.18-5.8-2.35-8.7-3.53
		c4.17-7.96-6.65-7.29-7.22-12.53c-2.67,0.34-5.7,0.1-7.92,1.15"/>
	<path class="st5" d="M931.85,433.15c2.38,11.54,4.75,23.09,7.13,34.63c-5.63-20-10.95-40.1-17.07-59.95
		c-2.05-6.65-5.13-16.9-9.58-17.98c-6.6-1.61-14.71,4.58-22.41,5.46c-15.61,1.79-17.91,8.41-11.14,21.79
		c2.56,5.07-2.41,11.12-7.13,5.96c-2.95-3.22-6.41-5.68-9.36-8.75c-8.25-8.59-18.59-15.5-23.07-27.29c16.4,2.21,0.66-4.57,1.29-6.79
		c3.76-13.29-4.69-28.1,4.63-41.05c-10.13,21.03,1.45,58,22.19,70.61c0.55,0.34,1.68-0.27,2.55-0.44
		c-3.68-11.26,3.46-18.9,8.83-27.33c10.23-16.06,10.39-40.31,27.28-52.43c3.41-6.82,4.19-10.81,8.18-16.64
		c1.49-2.18,3.54-6.02,5.93-8.82c1.23-1.44,3.21-1.88,3.86-3.19l0,0c13.31-7.32,3.98-23.09,12.19-32.32
		c0.49-0.19,1.13-0.44,1.62-0.63l2.52,0.17c-0.09,0.28-0.16,0.57-0.2,0.86c0,0-0.07,0.05-0.07,0.05c-7.85,7-2.58,18.72-7.01,24.96
		c-15.22,21.45-21.59,46.5-32.04,69.85c-7.67,8.29-14.73,15.92-22.39,24.21c-12.69,6.56-6.17,18.7-7.67,28.43
		c-0.31,2.03-1.42,7.62,4.13,5.97c1.26-0.37,2.69-5.67,1.71-7.2c-9.79-15.23-1.01-19.49,12.14-21.47l25.02-6.65
		c9.73,12.65,10.07,28.37,14.01,42.91C929.22,431.12,930.54,432.14,931.85,433.15z"/>
	<path class="st6" d="M965.78,430.55c3.65-14.72,6.67-31.21,17.25-43.66c10.65,3.06,21.29,6.13,31.94,9.19
		c12.35,5.36,7.73,13.72,4.19,22.19c-0.94,2.25,0.93,6.6,3.36,4.47c8.03-7.03,15.1-15.17,22.53-22.89c0.27-0.26,0.53-0.53,0.8-0.79
		c1.38-0.67,3.11-1,4.07-2.05c12.24-13.38,11-55.02-1.94-68.01c-11.72-10.44-23.37-20.95-30.94-35.06
		c-3.95-5.35-7.89-10.69-11.84-16.04c-7.06-8.38-14.13-16.76-21.19-25.14c-0.76-2.62-1.53-5.24-2.29-7.86
		c-1.32-1.94-2.64-3.89-3.97-5.83c0.72-5.3,1.43-10.61,2.15-15.91c8.42-8.76,39.14-4.32,46.17,6.67c-8.2-4.5-17.62-5.36-25.58-11.91
		c-6.89-5.67-15.73,0.21-20.15,7.44c-2.4,3.93-1.5,9.06,0.95,14.49c13.55,30.04,33.99,55.73,58.2,76.31
		c22.94,19.48,21.02,42.33,19.19,65.93c-1.28,16.46-15.75,25.76-28.51,34.65c-4.07,2.84-15.15,20.41-11.22-0.63
		c5.43-29.06-15.88-22.14-25.82-26.15c-21.25-8.57-19.55,15.16-22.95,23.07c-7.51,17.48-7.18,36.76-13.29,54.84
		c3.1-12.22,6.2-24.44,9.3-36.66C967.12,430.81,964.87,430.95,965.78,430.55z"/>
	<path class="st7" d="M1026.14,229.77c-0.17-0.12-0.3-0.3-0.42-0.47c-3.77-5.17-10.74-7.67-16.72-9.15
		c-6.13-1.52-12.7-2.15-18.98-1.24c-2.01,0.29-4.01,0.75-5.89,1.53c-0.82,0.34-1.62,0.74-2.37,1.22c-0.21,0.14-1.93,1.25-1.84,1.5
		c-0.61-1.65-1.39-3.27-1.8-4.97c-0.92-3.83,16.52-6.19,0.9-11.27c0.27-3.2,0.55-6.4,0.82-9.59c0.68,0.27,1.96,0.57,1.94,0.79
		c-0.54,8.09,8.34,5.65,11.09,9.98c-0.01-0.01,2.49-0.2,2.76-0.17c0.94,0.11,1.86,0.37,2.73,0.74c1.95,0.81,3.67,2.09,5.29,3.42
		c3.49,2.87,6.56,6.33,10.4,8.76c3.59,2.27,7.54,2.75,11.13,0.17c2.62-1.89,4.8-4.75,6.4-7.53c2.05-3.57,3.22-7.57,4.07-11.58
		c0.14-0.64,0.27-1.29,0.39-1.94c0.62,4.24,1.25,8.49,1.87,12.73c0.05,0.31,0.09,0.64-0.02,0.93c-0.16,0.4-0.56,0.63-0.9,0.88
		c-1.62,1.19-2.29,3.31-2.5,5.31s-0.06,4.05-0.52,6.02c-0.24,1.02-0.65,2.02-1.39,2.75c-1.46,1.45-3.76,1.51-5.8,1.36
		c-0.18-0.01-0.36-0.03-0.53-0.11C1026.22,229.83,1026.18,229.8,1026.14,229.77z"/>
	<path class="st8" d="M890,237.97c-5.16-4.42-9.53-8.52-17.28-10.38c-12.06-2.91-4.02-11.98-1.72-18.66
		c0.38,0.08,0.76,0.17,1.14,0.25c-1.45,2.97-3.82,5.86-4.07,8.92c-0.2,2.41,1.59,6.01,3.63,7.31c2.31,1.47,5.88,0.95,8.9,1.29
		c0.03-0.39,0.18-1.07,0.07-1.12c-17.61-7.45-1.97-13.84,0.64-20.64c0.54,0.68,1.09,1.36,1.63,2.05
		c-10.71,7.26-10.27,13.91,1.09,19.97c3.6,3.06,7.04,6.33,10.86,9.08c1.84,1.33,4.34,2.05,6.62,2.3c0.97,0.11,2.15-1.71,3.24-2.65
		c-0.99-0.59-2.1-1.05-2.96-1.79c-10.52-9.09-17.56-19.43-11.94-34.17c3-3.67,5.99-7.34,8.99-11.01c0.1,0.15,0.19,0.3,0.29,0.45
		c-2.47,3.87-6.08,7.46-7.12,11.69c-1.38,5.61-1.18,11.75-0.74,17.59c0.13,1.66,3.46,3.08,5.32,4.62c0.1-1.93,0.2-3.86,0.3-5.8
		c1.02,2.58,2.05,5.16,3.07,7.74c0.97,1.79,1.73,3.73,2.95,5.33c4.91,6.4,18.3,12.68,6.81,20.79c-7.37,5.21-0.59-7.44-4.59-9.46
		c-1.2-0.61-3.46,0.87-5.23,1.39C896.6,241.36,893.3,239.66,890,237.97z"/>
	<path class="st9" d="M893.93,273.89c1.63-1.69,3.26-3.37,4.89-5.06c0.4,0.11,0.8,0.21,1.19,0.32c1.6,0.47,4.41,1.67,4.62,1.32
		c6.05-10.16,13.97-19.85,17.16-30.9c4.32-14.98-11.05-26.42-11.54-40.77c-0.31-9.15-3.09-11.39-11.14-9.64
		c-0.1-0.15-0.2-0.3-0.29-0.45c7.44-2.04,12-2.49,12.76,8.43c0.64,9.04,8.27,17.48,9.45,26.61c1.66,12.92,13.4,27.39-0.08,38.98
		c-8.76,7.53-22.52,8.9-27.93,21.29c-0.01-0.35-0.03-0.69-0.04-1.04c-0.31-2.01-0.61-4.03-0.92-6.04
		C892.68,275.93,893.31,274.91,893.93,273.89z"/>
	<path class="st10" d="M872.14,209.17c-0.38-0.08-0.76-0.17-1.14-0.25c7.71-13.07,15.43-26.15,23.14-39.22
		c0.23,0.19,0.5,0.31,0.79,0.34c-2.31,5.22-4.62,10.45-6.93,15.67c12.05,4.58,1.92-9.23,7.97-9.62c0.33-0.02,0.65-0.09,0.98-0.14
		c-4.48,3.18,3.3,11.66-5.68,13.07c-1.49,0.23-3.96,2.08-3.87,2.98c0.24,2.63,1.55,5.15,2.44,7.72
		c-5.62,14.74,1.42,25.08,11.94,34.17c0.86,0.74,1.97,1.2,2.96,1.79c-1.08,0.94-2.26,2.75-3.24,2.65c-2.28-0.25-4.78-0.97-6.62-2.3
		c-3.82-2.75-7.26-6.03-10.86-9.08c1.87-0.29,3.73-0.59,5.6-0.88c-2.23-6.36-4.46-12.72-6.69-19.09c-0.54-0.68-1.09-1.36-1.63-2.05
		c1.26-3.29,2.53-6.58,3.79-9.87c-1.93,1.15-4.32,1.91-5.68,3.54C876.69,201.88,874.54,205.62,872.14,209.17z"/>
	<path class="st11" d="M942.28,467.54c-0.4-26.58-0.83-53.15-1.18-79.73c-0.07-5.26,3.82-4.91,7.4-4.91c3.59,0,7.47-0.35,7.4,4.91
		c-0.35,26.58-0.78,53.16-1.18,79.73c-0.13-26-0.39-52.01-0.27-78.01c0.02-4.82-1.97-5.44-5.95-5.44c-3.97,0-5.97,0.62-5.95,5.44
		C942.67,415.53,942.41,441.53,942.28,467.54z"/>
	<path class="st12" d="M1010.99,186.02c-0.4,0.07-0.79,0.13-1.19,0.2c-5.9-9.9-8.33-19.02-5.95-31.87
		c2.03-10.98,14.87-14.12,12.98-25.32c-5.27,0.02-6.97-3.53-7.89-7.87c-7.2-9.46-28.16-12.36-11.88-32.53
		c7.86-9.73-17.12-45.42-30.97-47.87c-1.64-0.29-2.86-2.96-4.27-4.53c10.2,7.53,22.48,13.42,30.08,23.01
		c9.32,11.76,11.12,26.83,2.13,40.89c-1.81,2.83-3.73,4.79,10.94,14.55c21.89,14.56,6.54,28.32,0.9,40.91
		C1000.2,168.23,1008.27,176.14,1010.99,186.02z"/>
	<path class="st13" d="M845.14,339.19c-9.33,12.95-0.87,27.76-4.63,41.05c-0.63,2.22,15.11,9-1.29,6.79
		c0-8.66-9.12-14.47-9.12-23.13c0-3,1.51-5.83,3.04-8.32c1.81-2.95,3.92-5.7,5.79-8.61c0.91-1.42,1.79-2.88,2.55-4.38
		c0.74-1.45,0.45-3.05,1.25-4.52c0.54-1,1.24-1.9,1.79-2.89c1.02-1.83,1.59-4.06,3.33-5.23c-0.16,1.63-0.32,3.26-0.49,4.89
		c-0.02,0.24,0.01,1.47-0.16,1.59C846.51,337.35,845.82,338.27,845.14,339.19z"/>
	<path class="st14" d="M1103.06,146.3c-12.27,0.39-11.07,13.51-19.88,15.66c-0.26,0.06-2.02-2.89-1.62-3.8
		c3.15-7.24,3.52-16.98,13.97-18.18C1097.34,139.77,1099.58,143.26,1103.06,146.3z"/>
	<path class="st15" d="M847.86,329.89c-2.88,2.11-3.57,6.71-6.45,8.82c21.3-18.09,35.32-43.14,52.52-64.82
		c-0.62,1.02-1.25,2.04-1.88,3.06c-4.01,5.39-8.02,10.78-12.04,16.16C872.11,307.83,859.7,318.61,847.86,329.89z"/>
	<path class="st16" d="M896.74,111.4c-0.34,0.5-0.68,1.01-1.01,1.51c-1.21,1.29-3.33,2.48-3.49,3.89
		c-0.88,7.91-17.14,8.73-9.37,20.44c9.42,8.95,11.91,20.45,12.07,32.81c-0.3-0.04-0.56-0.15-0.79-0.34
		c-1.43-12.96-5.79-23.71-14.73-34.35c-6.59-7.85,9.83-11.4,11.92-19.6C891.79,113.96,894.87,112.83,896.74,111.4z"/>
	<path class="st17" d="M1107.89,130.83c2.27,1.19,4.05,2.12,5.84,3.05c-2.15,1.98-4.1,5.12-6.51,5.52c-1.63,0.27-3.9-3.31-5.89-5.17
		C1103.4,133.16,1105.47,132.09,1107.89,130.83z"/>
	<path class="st11" d="M942.08,345.91c3.51-9.57-6.61-31.31,6.38-31.48c12.54-0.16,4.56,21.55,6.23,33.48
		c1.21,8.64,0.13,17.59,0.28,26.39c0.08,4.83-2.51,5.8-6.65,5.78c-4.01-0.02-6.34-1.16-6.28-5.64
		C942.16,365.64,942.08,356.83,942.08,345.91z"/>
	<path class="st18" d="M900.97,363.89c10.44-23.34,16.81-48.39,32.03-69.83c4.43-6.25-0.84-17.96,7.01-24.96
		c-3.57,21.07-14.77,38.81-23.37,57.81c-4.27,9.42-8.92,19.18-12.48,28.88c-2.14,5.86,3.51,17.55,9.23,22.46
		c5.54,4.76-7.41,7.15,0.51,8.94c-8.34,2.22-16.68,4.43-25.02,6.65c-2.95-0.61-5.91-1.21-8.86-1.82c8.03-1.74,16.12-3.25,24.05-5.35
		c3.33-0.88,9.15-3.44,9-4.54c-0.85-5.94-3.22-11.66-5.07-17.45c-1.99,0.77-3.99,1.53-5.98,2.3
		C901.66,365.95,901.32,364.92,900.97,363.89z"/>
	<path class="st19" d="M973.11,309.98c-15.08-12.12-9.15-32.81-19.19-46.98c0.37,0,0.74,0.01,1.11,0.01
		c3.64,11.01,7.11,22.09,10.96,33.03c4.79,13.61,17.11,23.22,17.92,39.61c0.46,9.27,7.87,18.57,13.33,27.1
		c4.7,7.34,11.07,13.61,16.7,20.36c-3.2-1.39-6.4-2.78-9.6-4.17c-3.73-8.36-7.46-16.72-11.19-25.08
		C979.14,342.58,982.7,323.28,973.11,309.98z"/>
	<path class="st20" d="M993.16,353.86c3.73,8.36,7.46,16.72,11.19,25.08c-2.11-1.62-5.63-2.95-6.06-4.93
		c-1.1-5.11-6.83-10.62-7.85-9.26c-3.62,4.81-5.3,11.32-6.53,17.43c-0.2,1.01,5.36,4.01,8.56,4.71c8.1,1.77,16.84,1.59,22.57,9.12
		l-0.07,0.08c-10.65-3.06-21.29-6.13-31.94-9.19C986.41,375.88,989.78,364.87,993.16,353.86z"/>
	<path class="st20" d="M965.78,430.55c-0.91,0.4-2.35,1.27-3.26,1.66c-14.64-12.47,1.86-27.25,3.7-39.33
		c2.08-13.66,7.48-26.92,6.87-41.29c-0.08-1.8,2.06-3.69,3.17-5.54c1.27,1.86,3.39,3.59,3.68,5.59c3.8,26.4-10.31,50.03-11.89,75.62
		C967.99,428.17,965.47,429.64,965.78,430.55z M979.78,363.66c-1.04-5.07-2.1-10.27-3.17-15.47c-5.5,4.66-1,10.78-2.36,16.07
		c-3.89,15.1-8.11,30.14-11.27,45.4c-1.17,5.67,0.24,11.88,0.48,17.84c1.06-0.44,2.93-0.7,3.07-1.34
		C971.01,405.51,975.33,384.84,979.78,363.66z"/>
	<path class="st21" d="M940.08,269.05c0.04-0.29,0.11-0.58,0.2-0.86c0.88-0.89,2.62-1.91,2.5-2.64
		c-5.23-32.62,12.28-67.8-11.02-98.36c4.07,3.29,8.15,6.58,12.22,9.87c0.01,28.7,0.03,57.41,0.04,86.11
		C944.02,265.99,944.48,269.15,940.08,269.05z"/>
	<path class="st22" d="M935.89,113.3c-2.86,1.91-9.25,2.38-12.02-3.27c1.98-3.49-7.82-12.17,4.84-10.98
		c2.9,0.27,5.24-0.04,5.22-4.02c-0.03-7.74-5.65-11.17-11.28-13.92c-1.89-0.93-4.89-0.59-7.88,2.97
		c-10.85,12.9,7.05,19.47,5.25,29.88c11.3,7.29,15.46,28.69,34.06,20.5c9.22-4.07,15.55-14.72,23.18-22.39
		c0.55-2.02,1.11-4.04,1.66-6.06c-3.23,8.68,14.14,4.03,9.03,13.96c-0.83,1.62-1.5,3.33-2.24,4.99c-1.45-0.76-3.25-1.19-4.31-2.32
		c-9.35-9.98-11.05,2.86-15.77,5.53c-15.31,8.65-9.28,17.95-0.21,27.22c0.91,0.93,1.02,4.47,0.43,4.8
		c-7.63,4.11-11.17,18.68-23.32,11.11c-17.58-10.95-9.48-21.98,1.34-32.37c-4.34-3.32-8.68-6.65-13.02-9.97
		c-4.28-4.56-8.52-4.92-12.71,0.11c-2.9-0.63-8.09-0.83-8.3-1.96c-0.89-4.78,1.28-5.92,2.84-10.33c1.31-3.72,1.8-5.5,3.52-2.91
		c0.37-0.37,1.12-0.81,1.06-1.09c-0.58-2.8-0.4-6.5-2.14-8.16c-4.96-4.73-7.64-10.16-4.4-16.16c2.69-4.98,5.3-13.72,13.59-9.04
		c6,3.39,11.31,8.12,11.41,17.34c0.08,7.59-16.17-0.81-8.64,10.5c1.23,1.84,3.53,4.08,5.36,4.1c1.84,0.02,3.7-2.51,5.56-3.91
		c14.72-11.12-4.68-32.05,12.2-42.37c2.09-1.28,5.25-0.81,7.92-1.15c0.57,5.23,11.39,4.56,7.22,12.53c2.9,1.18,5.8,2.35,8.7,3.53
		c-3.75,0.06-7.49,0.12-11.24,0.17c-0.47-0.95-1.57-2.51-1.33-2.76c7.18-7.43-2.91-8.04-4.98-11.13c-2.92-4.37-5.13,1.12-7.62,2.56
		 M948.59,173.91c6.53-6.19,16.87-14.04,16.03-15.51c-4.74-8.31-9.06-21.2-22.02-16.9c-4.98,1.65-11.13,11.62-10.12,16.39
		C933.69,163.6,942,167.8,948.59,173.91z M910.37,118.72c1.63,3.68-2.1,9.18,4.2,8.58c2.56-0.24,4.83-3.6,7.23-5.53
		c-3.13-3.02-6.26-6.04-9.39-9.06C911.66,114.95,910.9,117.18,910.37,118.72z"/>
	<path class="st23" d="M955.04,263c-0.37,0-0.74-0.01-1.11-0.01c-0.05-27.66-2.66-55.69,1.12-82.82
		c1.54-11.03,16.98-20.13,26.09-30.1c1.96-4.98,3.92-9.96,5.88-14.94c6.07-3.76,0.19-9.19,1.89-13.69
		c1.19-3.17,1.36-6.73,1.98-10.12c4.04,3.28,8.09,6.55,12.11,9.85c1.94,1.6,3.84,3.26,5.75,4.89c0.07-1.63,0.13-3.27,0.2-4.9
		c0.92,4.34,2.63,7.89,7.89,7.87c-12.57,5.22-13.9,17.82-17.53,28.3c-5.7,16.42,5.68,28.57,13.04,41.37
		c2.22,3.87,6.32,6.66,9.56,9.95c1.35-4.56,2.5-9.2,4.09-13.68c2.48-7.02,5.25-13.94,7.9-20.91c0.02,0.59,0.05,1.19,0.07,1.78
		c-2.37,10.66-4.72,21.32-7.12,31.97c-0.59,2.62-1.32,5.22-1.98,7.83c-2.04-1.55-4.68-2.7-5.99-4.71c-3.38-5.18-5.06-12-9.45-15.86
		c-6.47-5.69-8.42-20.22-22.45-13.43c-1.23,0.59-2.48,1.14-3.72,1.71c-0.38-1.04-1.27-2.24-1.01-3.08c0.44-1.44,1.3-3.31,2.5-3.87
		c17.71-8.17,24.43-46.76,10.45-60.71c-0.89-0.89-2.06-1.51-3.1-2.25c-0.31,1.35-1.1,2.79-0.86,4.04
		c2.55,13.32-1.57,27.24-10.43,34.21c-22.55,17.75-29.05,39.23-25.9,66.41C956.59,232.86,955.09,248.02,955.04,263z"/>
	<path class="st24" d="M911.54,111.78c4.54-3.86,15.03,12.61,19.3,17.17c0.95,5.77,4.47,12.78,2.39,17.07
		c-6.75,13.92-12.29-0.52-18.53-2.03c-1.56-2.9-3.11-5.8-4.67-8.7c1.46-1.12-0.7-12.8-0.73-18.04
		C909.27,112.77,910.3,112.74,911.54,111.78z"/>
	<path class="st25" d="M910.03,135.29c1.56,2.9,3.11,5.8,4.67,8.7c0.39,11.63,12.67,14.5,17.05,23.19
		c23.31,30.56,5.8,65.75,11.02,98.36c0.12,0.73-1.63,1.75-2.5,2.64c-1.12-0.08-2.24-0.15-3.36-0.23c1.59-1.01,4.67-2.32,4.54-2.98
		c-5.59-27.35,5.89-55.09-6.13-83.27c-9.54-22.37-41.69-37.17-33.82-66.95c-1.29-0.02,1.68,0.18,0.39,0.17
		c1.4-1.04,2.8-2.09,4.2-3.13C909.76,119.23,902.63,128.47,910.03,135.29z"/>
	<path class="st26" d="M978.92,144.91c-3.03,2.88-4.67,8.75-10.24,6.61c-4.68-1.81-7.26-6.49-5.51-11.32
		c1.59-4.4,4.88-8.22,7.69-12.11c0.96-1.33,7.83-15.76,9.23-16.77C995.69,115.14,982.58,137.3,978.92,144.91z"/>
	<path class="st27" d="M915.4,62.45c8.88-4.34,18.27-2.94,27.44-2.81c1.25,0.02,2.48,1.47,3.72,2.26c-0.69,0.81-1.45,2.37-2.07,2.32
		c-12.08-0.94-22.86,3.17-33.62,7.92c-2.14,0.94-5.34-0.45-8.02-0.93c-0.19-0.03-0.43-2.02-0.14-2.17
		C906.89,66.75,911.15,64.62,915.4,62.45z"/>
	<path class="st21" d="M906.1,111.78c-1.4,1.04-2.8,2.09-4.2,3.13c-3.26,7.88-19.09,8.54-12.63,22c-1.84-2.22-3.34-4.94-5.62-6.55
		c-3.11-2.19-3.75,1.31-0.78,6.88c-7.77-11.7,8.49-12.52,9.37-20.43c0.16-1.41,2.28-2.6,3.49-3.89c3.29-1.16,6.58-2.33,9.87-3.5
		C905.76,110.2,905.93,110.99,906.1,111.78z"/>
	<path class="st28" d="M987.11,66.83c1.25,1.24,2.5,2.49,3.75,3.73c-1.5,0.69-3.3,2.31-4.46,1.93c-7.72-2.52-15.33-5.39-22.86-8.44
		c-0.43-0.17,0.19-2.95,0.33-4.52c7.77,2.45,15.53,4.9,23.3,7.36c-5.89-1.41-11.79-2.81-17.68-4.22c-1.96,9.81,7.66,1.01,8.97,5.58
		c0.13,0.47,0.37,1.23,0.66,1.28c2.89,0.53,5.79,0.95,8.7,1.39C987.58,69.56,987.35,68.19,987.11,66.83z"/>
	<path class="st29" d="M978.92,106c-0.55,2.02-1.11,4.04-1.66,6.06c0.15-2.29-0.41-5,0.62-6.78c1.65-2.85,4.37-5.08,6.63-7.57
		c-3.39-0.25-6.81-0.29-10.15-0.82c-2.97-0.47-6.05-1.13-8.65-2.51c-0.73-0.39-0.71-4.73,0.24-5.37c11.07-7.47,4.06-8.14-3.16-8.87
		c3.75-0.06,7.49-0.12,11.24-0.17c-12.31,17.81,3,13.43,11.9,16.91C989.62,98.33,980.97,102.4,978.92,106z"/>
	<path class="st30" d="M970.83,153.01c3.66-7.61,24.86-37.87,9.27-41.7c1.04-0.39,7.33-4.38,7.46-4.19c2.64,4.04,2,19.89-0.55,28
		c-1.96,4.98-5.22,20.47-15.29,22.15C970.99,155.56,971.57,154.73,970.83,153.01z"/>
	<path class="st16" d="M889.1,136.55c-5.76-12.57,8.32-13.75,12.34-20.7c0.33-0.57,0.94-0.93,1.6-0.92c0.14,0,0.29,0,0.43,0.01
		c1.15,0.01,2.01,1.08,1.77,2.21c-5.98,28.32,20.78,42.74,30.08,64.56c12.02,28.18,0.53,55.93,6.13,83.27
		c0.13,0.63-2.76,1.88-4.38,2.88c-0.11,0.07-0.21,0.14-0.3,0.23c-0.18,0.17-0.35,0.33-0.53,0.5c-0.2,0.19-0.36,0.43-0.46,0.69
		c-3.94,10.56-7.89,21.11-11.83,31.67c0,0,0,0,0,0c-10.06,8.12-35.11,65.15-45.25,81.07c-5.09,8-11.77,15.27-9.32,25.6
		c0.26,1.11-0.52,2.29-1.66,2.27c-0.15,0-0.28-0.03-0.4-0.1c-20.59-12.52-32.15-49.06-22.4-70.16c0.92-1.22,1.81-2.39,2.73-3.61
		c3.87-3.4,8.15-6.47,11.43-10.37c11.47-13.64,22.56-27.61,33.79-41.45c0.09-0.12,0.17-0.25,0.23-0.38
		c5.47-12.2,19.13-13.6,27.84-21.09c13.49-11.59,1.74-26.06,0.08-38.98c-1.17-9.14-8.81-17.57-9.45-26.61
		c-0.75-10.64-5.09-10.49-12.18-8.59c-0.37,0.1-0.71,0.32-0.95,0.62c-2.2,2.7-4.41,5.4-6.61,8.1c-0.89,1.09-2.63,0.81-3.14-0.5
		c-0.61-1.57-1.16-3.15-1.31-4.77c-0.08-0.91,2.39-2.75,3.87-2.98c8.81-1.38,1.5-9.55,5.43-12.87c0.16-0.14,0.31-0.29,0.42-0.47
		c0.32-0.53,0.64-1.05,0.96-1.58c0.44-0.73,1.34-1.06,2.15-0.79c1.04,0.34,2.07,0.68,3.01,1.2c4.36,2.4,8.67,4.89,12.99,7.37
		c1.08,0.62,2.45,0,2.72-1.21c1.06-4.88-0.78-9.14-5.3-11.25c-7.51-3.51-13.47-7.09-14.67-16.41c-0.56-4.37-3.79-8.4-5.9-12.57
		c-0.1-0.2-0.24-0.38-0.41-0.53c-1.03-0.91-2.07-1.83-3.1-2.74C889.37,137,889.21,136.79,889.1,136.55z"/>
	<path class="st31" d="M880.02,392.02c2.95,0.61,5.91,1.22,8.86,1.82c-13.15,1.98-21.94,6.24-12.15,21.47
		c0.98,1.53-0.46,6.82-1.71,7.2c-5.55,1.65-4.44-3.94-4.13-5.97c1.51-9.81-5.14-22.09,8.03-28.61c0,0,0.09,0.09,0.09,0.09
		C879.35,389.36,879.68,390.69,880.02,392.02z"/>
	<path class="st32" d="M900.97,363.89c-0.24,0.26,2.27,1.34,2.23,1.82c-0.02,0.2-1.35,1.69-1.43,1.87
		c-4.35,9.99-11.78,16.99-22.07,20.44c0,0-1.28-0.57-1.28-0.57C885.77,379.44,893.62,371.9,900.97,363.89z"/>
	<path class="st25" d="M923.95,300.95"/>
	<path class="st25" d="M923.95,300.95c3.99-10.69,7.99-21.38,11.98-32.07C928.09,278.14,937.14,293.7,923.95,300.95z"/>
	<path class="st19" d="M1045.86,399.06c-0.27,0.26-0.53,0.53-0.8,0.79c-4.02,2.33-8.05,4.66-12.07,6.99
		c-1.99-4.91-0.78-8.38,2.9-12.65c6.32-7.33,11.66-15.75,12.1-26.04c1.53-35.78-35.91-48.33-46.25-77.23
		c-2.7-7.55-8.4-14.02-12.72-20.98c5.1,3.88,13.29,4.46,13.96,13.08c4.32,5.69,8.64,11.37,12.96,17.06
		c10.32,11.67,20.64,23.33,30.96,35c1.68,1.66,3.36,3.32,5.05,4.98c-0.01,14.62-0.02,29.24-0.03,43.87
		C1049.9,388.96,1047.88,394.01,1045.86,399.06z"/>
	<path class="st33" d="M1032.98,406.84c4.02-2.33,8.05-4.66,12.07-6.99c-7.44,7.72-14.5,15.86-22.53,22.89
		c-2.44,2.13-4.31-2.22-3.36-4.47c3.55-8.47,8.16-16.83-4.19-22.19c0,0,0.08-0.08,0.07-0.08c5.71-1,1.63-5.6,3-8.19
		c5.93,1.36,8.54,5.11,8.05,11.12C1032.04,398.4,1020.13,413.39,1032.98,406.84z"/>
	<path class="st34" d="M1045.86,399.06c2.02-5.05,4.05-10.1,6.07-15.14c1.02-1.89,3.11-3.92,2.89-5.66
		c-1.57-12.7,4.01-25.94-2.87-38.2c-1.68-1.66-3.36-3.32-5.05-4.98c0.36-2.02,0.72-4.05,1.09-6.07
		c12.93,12.99,14.18,54.63,1.94,68.01C1048.97,398.06,1047.23,398.39,1045.86,399.06z"/>
	<path class="st19" d="M979.03,206.92c15.62,5.08-1.82,7.45-0.9,11.27c0.41,1.7,1.19,3.31,1.8,4.97c-0.72,5.31-1.11,9.78-1.83,15.08
		c-0.81-4.79,3.32,7.75,3.65,6.69c0.74,2.52,1.47,5.05,2.21,7.57c0.03,0.1,0.06,0.22,0.02,0.32c-0.04,0.09-0.12,0.14-0.2,0.19
		c-1.37,0.91-2.6,2.6-2.25,4.31c0.39,1.92,2.18,3.4,3.54,4.66c-8.64-4.43-9.41-13.9-12.79-21.34
		C966.69,228.36,979.82,218.85,979.03,206.92z"/>
	<path class="st35" d="M985.06,261.98c-3-2.77-5.84-5.57-1.03-9.22c7.06,8.38,14.12,16.76,21.19,25.14
		c-0.74,1.7-1.49,3.41-2.23,5.11c-0.67-8.61-8.86-9.19-13.96-13.08C987.7,267.29,986.38,264.64,985.06,261.98z"/>
	<path class="st36" d="M1047.99,329c-0.36,2.02-0.72,4.05-1.09,6.07c-10.32-11.67-20.64-23.33-30.96-35
		c0.37-2.04,0.74-4.09,1.11-6.13C1024.62,308.05,1036.27,318.56,1047.99,329z"/>
	<path class="st37" d="M1017.06,293.94c-0.37,2.04-0.74,4.09-1.11,6.13c-4.32-5.69-8.64-11.37-12.96-17.06
		c0.74-1.7,1.49-3.41,2.23-5.11C1009.16,283.25,1013.11,288.6,1017.06,293.94z"/>
	<path class="st38" d="M985.06,261.98c1.32,2.65,2.64,5.31,3.96,7.96c4.32,6.96,10.02,13.44,12.72,20.98
		c10.33,28.9,47.77,41.45,46.25,77.23c-0.44,10.29-5.77,18.71-12.1,26.04c-3.68,4.27-4.9,7.73-2.9,12.65
		c-12.86,6.55-0.95-8.45-6.89-7.92c13.46-2.19,14.29-15.29,18.35-24.04c3.37-7.26,4.22-19.96,0-25.71
		c-15.95-21.77-34.14-41.54-48.99-64.62c-14.18-22.06-31.9-40.4-21.22-69.22c2.38-6.43,3.54-13.32,5.25-20
		c4.5,3.89,8.99,7.78,13.49,11.67c-0.03,0.36-0.07,0.73-0.1,1.09c-2.75-4.34-11.63-1.89-11.09-9.98c0.01-0.22-1.27-0.52-1.94-0.79
		c-0.27,3.2-0.55,6.4-0.82,9.59c0.79,11.93-12.34,21.44-6.76,33.73C975.65,248.09,976.41,257.55,985.06,261.98z"/>
	<path class="st39" d="M992.89,208.1c0.03-0.36,0.07-0.73,0.1-1.09c5.62,2.64,11.23,5.31,16.87,7.9c5.77,2.64,11.57,5.18,17.36,7.76
		c1.92-6.08,3.75-12.19,5.8-18.23c0.65-1.92,1.88-3.64,2.84-5.45c0.1,0.32,0.19,0.64,0.29,0.97c-1.16,3.93-1.64,8.24-3.58,11.74
		C1016.79,240.18,1006.57,204.78,992.89,208.1z"/>
	<path class="st40" d="M900.02,269.15c2.33-2.79,7.16-7.15,6.56-8.11c-0.45-0.72-1.16-1.88-2.12-1.96c-0.68-0.06-1.19,0.5-1.57,0.98
		c-0.91,1.13-1.64,3.05-3.36,3c-0.61-0.02-1.2-0.24-1.78-0.46c-0.86-0.33-1.72-0.66-2.58-0.99c1.6-2.93,3.06-6.09,5.37-8.54
		c3.64-3.86,4.02-6.96-0.64-10.02c1.77-0.52,4.03-2,5.23-1.39c4,2.02-2.78,14.67,4.59,9.46c11.48-8.11-1.91-14.39-6.81-20.79
		c-1.22-1.59-1.98-3.54-2.95-5.33c3,1.35,6,2.7,9,4.05c2.69,2.59,5.36,5.19,8.15,7.67c0.1,0.09,1.81-1.04,1.95-1.76
		c0.19-0.98-0.31-2.15-0.71-3.16c-3.67-9.46-7.49-18.86-11.03-28.37c-1.44-3.86,2.46-12.06-2.26-11.24
		c-4.62,0.81-8.92,8.35-11.52,13.82c-1.45,3.03-3.01,9.11,3.36,11.24c-0.1,1.93-0.2,3.86-0.3,5.8c-1.86-1.53-5.2-2.95-5.32-4.62
		c-0.44-5.84-0.65-11.98,0.74-17.59c1.04-4.22,4.66-7.82,7.12-11.69c8.05-1.75,10.83,0.49,11.14,9.64
		c0.49,14.34,15.86,25.79,11.54,40.77c-3.19,11.05-11.11,20.75-17.16,30.9C904.42,270.82,901.62,269.63,900.02,269.15z"/>
	<path class="st41" d="M872.14,209.17c2.39-3.55,4.55-7.3,7.28-10.57c1.35-1.63,3.75-2.39,5.68-3.54c-1.26,3.29-2.53,6.58-3.79,9.87
		c-2.61,6.79-18.25,13.19-0.64,20.64c0.11,0.05-0.04,0.73-0.07,1.12c-3.02-0.34-6.59,0.17-8.9-1.29c-2.04-1.29-3.82-4.9-3.63-7.31
		C868.33,215.03,870.69,212.14,872.14,209.17z"/>
	<path class="st42" d="M882.93,206.98c2.23,6.36,4.46,12.72,6.69,19.09c-1.87,0.29-3.73,0.59-5.6,0.88
		C872.66,220.89,872.22,214.24,882.93,206.98z"/>
	<path class="st43" d="M1035.87,198.98c-0.96,1.81-2.19,3.53-2.84,5.45c-2.05,6.04,0.78,19.39-5.52,18.43
		c-0.3-0.05-4.14-1.91-4.58-2.11c-1.39-0.62-2.79-1.24-4.18-1.86c-2.97-1.32-5.93-2.64-8.88-3.99c-5.65-2.58-11.25-5.26-16.87-7.9
		c-4.5-3.89-8.99-7.78-13.49-11.67c-1.72,6.68-2.87,13.57-5.25,20c-10.68,28.81,7.03,47.16,21.22,69.22
		c14.84,23.08,33.04,42.86,48.99,64.62c4.22,5.76,3.37,18.45,0,25.71c-4.06,8.75-4.89,21.84-18.35,24.04
		c0.49-6-2.12-9.76-8.05-11.12c-1.37-1.57-2.74-3.14-4.1-4.71c-5.63-6.75-12-13.02-16.7-20.36c-5.46-8.53-12.88-17.83-13.33-27.1
		c-0.81-16.39-13.14-26-17.92-39.61c-3.85-10.94-7.32-22.01-10.96-33.03c0.05-14.99,1.55-30.14-0.16-44.92
		c-3.15-27.18,3.35-48.66,25.9-66.41c8.86-6.97,12.98-20.89,10.43-34.21c-0.24-1.24,0.55-2.69,0.86-4.04
		c1.04,0.74,2.21,1.36,3.1,2.25c13.99,13.95,7.26,52.54-10.45,60.71c-1.21,0.56-2.07,2.43-2.5,3.87c-0.26,0.85,0.64,2.04,1.01,3.08
		c1.24-0.57,2.49-1.12,3.72-1.71c14.03-6.79,15.99,7.75,22.45,13.43c4.39,3.86,6.07,10.68,9.45,15.86c1.31,2.02,3.96,3.17,5.99,4.71
		c0.66-2.61,1.39-5.2,1.98-7.83c2.4-10.65,4.75-21.31,7.12-31.97c2.62-1.05,6.17-4.61,6.69,1.44c0.18,2.07-3.09,4.24-3.5,6.59
		C1036.27,188.83,1036.24,193.93,1035.87,198.98z"/>
	<path class="st44" d="M1033.88,174.06c-2.65,6.96-5.42,13.89-7.9,20.91c-1.58,4.48-2.74,9.11-4.09,13.68
		c-3.24-3.29-7.33-6.08-9.56-9.95c-7.36-12.8-18.74-24.95-13.04-41.37c3.64-10.48,4.97-23.08,17.53-28.3
		c1.89,11.2-10.95,14.34-12.98,25.32c-2.38,12.85,0.05,21.97,5.95,31.87c1.81,3.43,3.05,7.37,5.56,10.18
		c3.11,3.48,7.85,10.01,8.52-1.91c0.3-5.37,3.5-10.64,3.53-15.96C1027.44,172.58,1029.1,171.79,1033.88,174.06z"/>
	<path class="st45" d="M1037.79,173.25c7.83-3.74-11.95-10.54,1.91-14.08c1.14-0.29,5.68,0.74,6.98,1.09
		c-7.71,5.39-3.09,14.01-7.49,20.11C1038.76,178.2,1038.33,176.03,1037.79,173.25z"/>
	<path class="st46" d="M893.02,284.03c-11.28,13.9-22.42,27.92-33.93,41.62c-3.41,4.06-7.9,7.21-11.89,10.78
		c0.22-2.18,0.45-4.36,0.67-6.54c11.83-11.28,24.25-22.06,32.16-36.78c0.11,1.62,0.21,3.24,0.32,4.86c1.19-0.97,2.59-1.77,3.53-2.95
		c3.13-3.94,6.09-8.01,9.11-12.04C892.99,283.34,893.01,283.69,893.02,284.03z"/>
	<path class="st47" d="M892.98,282.99c-3.02,4.02-5.98,8.1-9.11,12.04c-0.93,1.18-2.34,1.98-3.53,2.95
		c-0.11-1.62-0.21-3.24-0.32-4.86c4.01-5.39,8.02-10.78,12.04-16.16C892.37,278.96,892.67,280.98,892.98,282.99z"/>
	<path class="st48" d="M889.27,136.91c1.22,1.07,2.43,2.15,3.65,3.22c1,11.08,9.28,20.84,5.93,32.7c-0.63,1.04-1.26,2.08-1.89,3.12
		c-0.33,0.05-0.65,0.12-0.98,0.14c-6.05,0.4,4.07,14.2-7.97,9.62c2.31-5.22,4.62-10.45,6.93-15.67
		c-0.16-12.36-2.64-23.86-12.07-32.81c-2.97-5.57-2.33-9.07,0.78-6.88C885.93,131.97,887.43,134.69,889.27,136.91z"/>
	<path class="st49" d="M879.01,388.02c10.78-3.61,18.66-10.39,23-21.04c1.99-0.77,3.99-1.53,5.98-2.3
		c1.85,5.8,4.22,11.52,5.07,17.45c0.16,1.1-5.67,3.66-9,4.54c-7.93,2.1-16.02,3.6-24.05,5.35
		C879.68,390.69,879.35,389.36,879.01,388.02z"/>
	<path class="st50" d="M1013.95,383.1c1.37,1.57,2.74,3.14,4.1,4.71c-1.37,2.59,2.71,7.19-3,8.19c-5.73-7.53-14.47-7.36-22.57-9.12
		c-3.2-0.7-8.77-3.7-8.56-4.71c1.23-6.11,2.91-12.62,6.53-17.43c1.02-1.35,6.75,4.15,7.85,9.26c0.43,1.99,3.95,3.31,6.06,4.93
		C1007.55,380.32,1010.75,381.71,1013.95,383.1z"/>
	<path class="st51" d="M979.78,363.66c-4.45,21.18-8.77,41.85-13.26,62.49c-0.14,0.64-2.01,0.9-3.07,1.34
		c-0.23-5.96-1.65-12.17-0.48-17.84c3.16-15.26,7.38-30.29,11.27-45.4c1.36-5.29-3.14-11.41,2.36-16.07
		C977.68,353.39,978.74,358.6,979.78,363.66z"/>
	<path class="st52" d="M962.79,80.16c7.22,0.72,14.23,1.4,3.16,8.87c-0.95,0.64-0.97,4.98-0.24,5.37c2.6,1.38,5.68,2.04,8.65,2.51
		c3.34,0.53,6.76,0.57,10.15,0.82c-2.27,2.49-4.98,4.72-6.63,7.57c-1.03,1.78-0.47,4.49-0.62,6.78
		c-7.63,7.67-13.96,18.32-23.18,22.39c-18.6,8.2-22.76-13.21-34.06-20.5c1.28-1.31,3.55-33.53,4.83-34.84
		c3.52-2.91,12.84-6.61,15.7-8.53c3.54-2.36,1-1.15,4.5-3.8c12.34-9.33-10.99,7.76,3.56-0.63c2.49-1.44,4.96-4.26,7.88,0.11
		c2.07,3.09,12.16,3.69,4.98,11.13C961.22,77.65,962.32,79.21,962.79,80.16z M974.46,102.16"/>
	<path class="st1" d="M948.59,173.91c-6.59-6.11-14.9-10.31-16.11-16.02c-1.01-4.77,5.14-14.74,10.12-16.39
		c12.96-4.29,17.27,8.6,22.02,16.9C965.46,159.87,955.12,167.72,948.59,173.91z"/>
	<path class="st53" d="M923.87,110.03c-1.28,1.31-2.56,2.62-3.84,3.92c1.8-10.41-16.11-16.98-5.25-29.88
		c2.99-3.56,5.99-3.89,7.88-2.97c5.63,2.76,11.24,6.18,11.28,13.92c0.02,3.98-2.33,4.29-5.22,4.02
		C916.05,97.87,925.85,106.54,923.87,110.03z"/>
	<path class="st54" d="M987.11,66.83c0.23,1.37,0.47,2.73,0.7,4.1c-2.9-0.45-5.81-0.86-8.7-1.39c-0.29-0.05-0.52-0.81-0.66-1.28
		c-1.32-4.57-10.93,4.23-8.97-5.58c5.89,1.41,11.79,2.81,17.68,4.22C987.17,66.89,987.11,66.83,987.11,66.83z"/>
	<path class="st55" d="M898.84,172.84c3.35-11.87-4.92-21.63-5.93-32.7c2.1,4.28,5.47,8.4,6.05,12.87
		c1.2,9.32,7.16,12.9,14.67,16.41c5.24,2.45,6.87,7.77,4.58,13.61c-4.99-2.85-9.95-5.74-14.98-8.51
		C901.88,173.76,900.31,173.39,898.84,172.84z"/>
	<path class="st36" d="M1051.95,340.05c6.88,12.26,1.3,25.51,2.87,38.2c0.22,1.74-1.87,3.77-2.89,5.66
		C1051.93,369.29,1051.94,354.67,1051.95,340.05z"/>
	<path class="st20" d="M930.93,432.13c0.91,0.4,1.82,0.8,2.73,1.19c14.64-12.47,1.83-26.24-0.01-38.32
		c-2.08-13.66-7.48-26.92-6.87-41.29c0.08-1.8-2.06-3.69-3.17-5.54c-1.27,1.86-3.39,3.59-3.68,5.59
		c-3.8,26.4,10.31,50.03,11.89,75.62C931.88,430.29,931.25,431.22,930.93,432.13z M920.09,365.78c1.04-5.07,2.1-10.27,3.17-15.47
		c5.5,4.66,1,10.78,2.36,16.07c3.89,15.1,8.11,30.14,11.27,45.4c1.17,5.67-0.24,11.88-0.48,17.84c-1.06-0.44-2.93-0.7-3.07-1.34
		C928.86,407.63,924.54,386.96,920.09,365.78z"/>
	<path class="st51" d="M920.09,365.78c4.45,21.18,8.77,41.85,13.26,62.49c0.14,0.64,2.01,0.9,3.07,1.34
		c0.23-5.96,1.65-12.17,0.48-17.84c-3.16-15.26-7.38-30.29-11.27-45.4c-1.36-5.29,3.14-11.41-2.36-16.07
		C922.2,355.51,921.13,360.72,920.09,365.78z"/>
	<path class="st16" d="M885.47,214.44l5.97-16.67c0,0,1.48-8.4-3.57-2.7c-2.55,2.88-6.92,13.73-6.92,13.73l4.15,5.26L885.47,214.44z
		"/>
	<circle class="st56" cx="930.38" cy="104.28" r="2.11"/>
	<path class="st4" d="M930.72,73.26l-6.41,6.16l24.63-13.37l-16.95,6.42C931.51,72.64,931.08,72.91,930.72,73.26z"/>
	<path class="st57" d="M930.28,98.74c4.18,1.17,8.18,2.3,12.17,3.42c-4.73,1.88-1.75,9.85-9.23,10.41
		c-8.62,0.65-6.12-8.12-10.67-10.48C924.99,101.03,927.43,99.98,930.28,98.74z"/>
	<circle class="st56" cx="933.36" cy="105.28" r="1.85"/>
	<polygon class="st58" points="942.73,120.93 954.55,120.93 948.64,125.89 	"/>
	<path class="st57" d="M966.44,98.74c-4.18,1.17-8.18,2.3-12.17,3.42c4.73,1.88,1.75,9.85,9.23,10.41
		c8.62,0.65,6.12-8.12,10.67-10.48C971.73,101.03,969.3,99.98,966.44,98.74z"/>
	
		<ellipse transform="matrix(0.9982 -0.0597 0.0597 0.9982 -4.5651 57.6683)" class="st56" cx="963.37" cy="105.28" rx="1.85" ry="1.85"/>
	<path class="st4" d="M924.55,79.56c0,0,6,2.16,12.71-0.98s8.44-6.71,13.6-5.47c5.17,1.25,9.33-6.03,9.33-6.03l-21.09,0.33
		L924.55,79.56z"/>
	<path class="st4" d="M960.2,66.46c0,0,1.66-5.05-2.44-5.05s-14.08,4.48-14.08,4.48s-2.38,4.1,6.95,2.64s9.03-1.96,9.03-1.96"/>
</g>
<path d="M919.39,97.94c0,0,14.17-8.25,20.67-2.44c1.13,1.01-1.66-4.34-7.07-3.56C927.58,92.71,919.39,97.94,919.39,97.94z"/>
<path d="M974.93,97.93c0,0-14.17-8.25-20.67-2.44c-1.13,1.01,1.66-4.34,7.07-3.56C966.73,92.7,974.93,97.93,974.93,97.93z"/>
<path class="st6" d="M842.53,337.75"/>
<path class="st30" d="M923.49,150.59c-3.66-7.61-23-34.42-7.41-38.24c-1.04-0.39-7.33-4.38-7.46-4.19c-2.64,4.04-2,19.89,0.55,28
	c1.96,4.98,11.47,16.14,13.43,21.12C923.33,155.56,922.75,152.31,923.49,150.59z"/>
<path class="st30" d="M921.81,155.63c1.59-3.31,10.85-10.12,11.01-17.42c0.12-5.77-6.46-11.81-9.92-16.34
	c-2.21-2.89-10.09-7.15-13.52-7.99c1.04-0.39,1.16-5.51,1.29-5.31c0.89,1.36,3.44,1.55,4.54,2.74c1.81,1.96,4.33,4.09,6.19,6
	c4.2,4.31,7.37,9.2,11.54,13.54c1.85,1.92,2.82,3.81,4.18,6.14c0.36,0.62,0.73,1.26,1.36,1.64c0.62,0.37,1.21,0.52,1.42,1.32
	c0.28,1.07-0.28,2.25-0.72,3.19C937.62,146.06,922.54,157.35,921.81,155.63z"/>
<path class="st30" d="M967.71,155.81c-1.59-3.31-3.34-4.06-3.49-11.36c-0.12-5.77,7.86-20.38,11.33-24.9
	c2.21-2.89,10.09-7.15,13.52-7.99c-1.04-0.39-1.16-5.51-1.29-5.31c-0.89,1.36-3.44,1.55-4.54,2.74c-1.81,1.96-4.33,4.09-6.19,6
	c-4.2,4.31-7.37,9.2-11.54,13.54c-1.85,1.92-2.82,3.81-4.18,6.14c-0.36,0.62-0.73,1.26-1.36,1.64c-0.62,0.37-1.21,0.52-1.42,1.32
	c-0.28,1.07,0.28,2.25,0.72,3.19C960.82,143.73,966.98,157.53,967.71,155.81z"/>
<polygon points="880.61,197.53 888,185.72 893.9,185.72 884.47,196.7 "/>
<path class="st45" d="M1029.08,173.09"/>
<rect x="1052.63" y="158.82" class="st59" width="19.54" height="4.22"/>
<rect x="1072.18" y="158.82" class="st60" width="3.39" height="4.22"/>
<path class="st19" d="M990.14,226.85"/>
</svg>
