<?xml version="1.0" encoding="utf-8"?>
<!-- Generator: Adobe Illustrator 23.0.3, SVG Export Plug-In . SVG Version: 6.00 Build 0)  -->
<svg version="1.1" id="Layer_1" xmlns="http://www.w3.org/2000/svg" xmlns:xlink="http://www.w3.org/1999/xlink" x="0px" y="0px"
	 viewBox="0 0 612 792" style="enable-background:new 0 0 612 792;" xml:space="preserve">
<style type="text/css">
	.st0{fill:#FEFEFE;}
	.st1{fill:#F34336;}
</style>
<g>
	<path class="st0" d="M307,447c-16.17,0-32.33-0.02-48.5,0.04c-1.3,0-1.54-0.24-1.54-1.54c0.05-32.33,0.05-64.67,0-97
		c0-1.3,0.24-1.54,1.54-1.54c32.33,0.05,64.67,0.05,97,0c1.3,0,1.54,0.24,1.54,1.54c-0.05,32.33-0.05,64.67,0,97
		c0,1.3-0.24,1.54-1.54,1.54C339.33,446.98,323.17,447,307,447z"/>
	<path d="M330,373c-3.14,0.75-6.01-0.95-9.07-1.03c-1.48-0.04-1.52,0.64-2.06,1.83c-1.14,2.52-1.08,5.21-1.7,7.76
		c-1.03,4.24-1.74,8.56-2.86,12.81c-0.59,2.23-0.92,4.64-1.33,6.97c-0.56,3.24-1.37,6.43-1.94,9.67c-0.17,0.95-0.67,1.08-1.33,0.96
		c-0.87-0.15-0.85-0.96-0.69-1.55c0.96-3.5,1.26-7.19,2.2-10.6c0.94-3.42,0.64-7.22,2.77-10.31c-0.41-2.31,0.61-4.39,0.99-6.58
		c0.51-2.93,0.8-5.88,1.98-8.67c0.64-1.5-0.11-2.24-1.98-2.25c-4.66-0.02-9.32-0.02-13.98,0c-2.01,0.01-2.57,0.39-1.91,2.25
		c0.96,2.69,0.42,5.49,1.04,8.08c0.65,2.72,0.35,5.51,1.02,8.07c0.72,2.74,0.28,5.53,0.99,8.08c0.76,2.73,0.71,5.4,0.9,8.11
		c0.11,1.55,1.37,2.89,0.97,4.58c-0.13,0.53-0.35,0.83-0.97,0.85c-0.61,0.02-1.02-0.27-1.01-0.77c0.06-2.91-1.74-5.61-1.01-8.57
		c0.5-2.04-1.25-3.53-1.12-5.59c0.12-1.82,1.02-3.98-0.86-5.6c-0.17-0.14-0.07-0.64-0.02-0.97c0.62-4.27-1.53-8.31-1.01-12.57
		c0.22-1.79-1.64-3.17-1.03-5.09c0.16-0.49-0.3-0.86-0.9-0.86c-1.83,0.01-4.03-0.64-5.41,0.15c-2.27,1.31-4.47,0.5-6.66,0.85
		c-0.03-0.24-0.07-0.49-0.1-0.73c0.26-0.42,0.58-0.93,1.04-0.97c4.08-0.42,7.14-2.77,10.13-5.26c1.37,1.48,1.96,3.95,4.75,3.64
		c1.86-0.21,4.26,0.6,4.7-2.26c0.26-1.73,0.69-3.9-1.53-4.69c-2.05-0.73-4.26-0.85-5.67,1.46c-0.43,0.7-0.75,1.47-1.51,1.89
		c-2.42-0.51-1.92-3.32-3.53-4.47c-0.1-0.2-0.19-0.4-0.29-0.6c-0.11-0.63,0.27-0.98,0.79-0.98c9.47-0.02,18.95-0.02,28.42,0
		c0.51,0,0.9,0.35,0.79,0.98c-0.15,0.17-0.3,0.33-0.45,0.5c-2.86,0.4-4.35,2.5-5.77,4.68c-0.72-0.07-1.22-0.49-1.52-1.1
		c-1.08-2.2-2.79-3.82-4.97-1.97c-1.73,1.46-1.72,4.29,0.02,5.73c2.01,1.66,4.35,1.18,5.63-1.54c0.21-0.45,0.49-0.85,0.87-1.19
		c3.4,3.24,7.57,4.31,12.12,4.35c1.1,0.15,1.86,0.71,2.23,1.77C330.1,372.5,330.05,372.75,330,373z"/>
	<path d="M280,374c0,0.17,0.06,0.45-0.01,0.48c-1.57,0.84-4.39,0.65-4.65,2.17c-0.3,1.69,2.29,2.91,3.23,4.52
		c3.42,5.84,7.73,11.06,11.46,16.67c2.88,4.33,5.98,8.51,9.06,12.7c0.49,0.66,0.92,1.24,1.05,2.07c0.07,0.46,1.34,0.76,0.3,1.35
		c-0.61,0.35-1.43-0.05-1.64-0.7c-0.66-2.13-2.7-3.17-3.79-4.92c-4.16-6.69-8.73-13.08-13.48-19.35c-2.17-2.87-3.92-6.05-6.07-8.92
		c-0.73-0.97-1.43-1.94-2.05-2.98c-0.92,0.61-1.43,1.58-2.66,2.02c-1.57,0.56-2.87,1.9-4.27,2.91c-1.08,0.78-2.35,0.31-2.47-1
		c-0.31-3.47,0.76-6.29,3.99-8.02c0.14,0.18,0.28,0.36,0.42,0.54c0.35,1.27-0.34,2.18-1,3.15c-0.24,0.35-0.69,0.73-0.41,1.28
		c0.42-0.5,0.84-1,1.47-1.27c2.27-0.07,3.26-2.28,5.13-3.03c1.98-0.13,3.94-1.11,5.94-0.15C279.69,373.67,279.85,373.84,280,374z"/>
	<path d="M346,373c3.23,1.73,4.3,4.55,3.99,8.03c-0.12,1.31-1.43,1.82-2.47,0.98c-2.08-1.69-4.7-2.6-6.6-4.57
		c-1.05-1.08-1.95-0.26-2.36,0.56c-2.06,4.09-5.22,7.43-7.66,11.27c-4.06,6.38-8.77,12.35-13.17,18.52
		c-1.26,1.78-2.34,3.69-3.57,5.49c-0.15,0.22-0.43,1.14-1.01,0.34c-0.17-0.23-0.26-0.7-0.13-0.91c1.21-2,2.32-4.08,3.74-5.93
		c5.37-7.01,10.24-14.37,15.21-21.66c1.68-2.46,3.78-4.62,5.05-7.38c0.68-1.47,0.55-2.26-0.73-2.74c-0.78-0.29-2.11,0.66-2.28-1.01
		c0.15-0.17,0.3-0.33,0.45-0.5c1-0.59,2.07-0.86,3.23-0.74c2.6,1.23,4.74,3.37,7.71,3.88c0.64,0.24,1.11,0.68,1.49,1.22
		c0.32-0.71-0.27-1.11-0.58-1.57c-0.57-0.84-1-1.69-0.72-2.74C345.72,373.36,345.86,373.18,346,373z"/>
	<path d="M322,361c3.24-0.4,6.07,0.88,9.02,1.94c3.04,1.09,5.56,3.12,8.57,4.24c0.58,0.22,1.45,0.83,1.41,1.82
		c-0.17,0.14-0.33,0.28-0.5,0.42c-2.25,0.38-4.13-1.14-6.29-1.22c-2.75-2.3-5.57-4.43-9.47-4.03
		C323.13,363.71,321.71,363.09,322,361z"/>
	<path d="M273,369c-0.04-0.99,0.89-1.73,1.4-1.8c2.45-0.36,3.75-2.71,6.07-3.21c2.24-0.48,4.23-1.67,6.34-2.49
		c1.83-0.71,3.5-0.15,5.19-0.5c-1.24,3.41-5.45,2.61-7.3,5.14c-3.28-0.87-5.24,1.71-7.7,2.95c-0.77,0.05-1.58-0.06-2.31,0.37
		c-0.41,0.09-0.82,0.06-1.22-0.06C273.31,369.27,273.16,369.14,273,369z"/>
	<path d="M268,373c0.88-1.61,1.8-3.15,4-3c0.14,0.18,0.28,0.36,0.43,0.54c0.23,1.92,0.02,3.65-2,4.6
		C269.2,374.9,268.84,373.68,268,373z"/>
	<path d="M342,370c2.2-0.15,3.12,1.39,4,3c-0.61,0.64-1.26,1.22-2.22,1.24c-1.93-0.51-1.98-2.1-2.09-3.66
		C341.8,370.39,341.9,370.2,342,370z"/>
	<path d="M284,373c0.06,0.87-0.49,1-1.18,1c-0.94,0-1.88,0-2.82,0c-0.53-1.57,0.51-1.98,1.69-2.29
		C282.68,371.74,283.4,372.28,284,373z"/>
	<path d="M334,374c-0.94,0-1.88,0-2.82,0c-0.68,0-1.24-0.13-1.18-1C331.66,372.02,333.24,371.37,334,374z"/>
	<path d="M341,369c0.69-0.03,1.03,0.31,1,1C341.11,370.22,340.76,369.91,341,369z"/>
	<path d="M272,370c-0.03-0.69,0.31-1.03,1-1C273.24,369.9,272.9,370.23,272,370z"/>
	<path class="st1" d="M300.67,371c-0.66,0-1.32,0-1.98,0c-4.12-0.02-4.57-0.72-3.2-5c0.14-0.43,0.44-0.84,0.48-1.27
		c0.11-1.12-0.29-2.58,0.28-3.32c0.83-1.08,2.46-0.36,3.72-0.37c1.93-0.01,4.56-0.93,5.62,0.4c0.98,1.23,0.34,3.74,0.4,5.69
		c0.02,0.82-0.05,1.65,0.02,2.47c0.08,1.05-0.32,1.46-1.38,1.41C303.31,370.95,301.99,371,300.67,371z"/>
	<path class="st0" d="M284,373c-0.76-0.15-1.91,0.5-2-1c-0.01-0.2-0.03-0.4-0.04-0.6c-0.01-0.61,0.09-1.19,0.24-1.78
		c0.1-0.38,0.23-0.75,0.38-1.12c0.29-0.73,0.53-1.47,0.96-2.14c0.15-0.12,0.3-0.25,0.46-0.37c2.01,0.01-0.19-3.66,2.9-3.15
		c1.23,0.2,2.74-1.15,4.37-0.89c0.43,0.07,0.84-0.37,0.73-0.96c2.95,0.12,2.96,0.12,3,2.59c0.01,0.8,0,1.61,0,2.41
		c-2.15,0.73-0.66,2.46-0.93,3.69c-0.22,0.98-0.45,1.43-1.46,1.32c-2.86-0.33-5.42,1.45-8.27,1.2
		C284.24,372.19,284.11,372.72,284,373z"/>
	<path class="st1" d="M322,361c1,1,2,2,3,3c0.15,0.1,0.3,0.2,0.45,0.3c0.36,0.4,0.64,0.86,0.9,1.34c0.17,0.31,0.3,0.64,0.41,0.97
		c0.16,0.49,0.31,0.99,0.48,1.47c0.14,0.31,0.25,0.63,0.37,0.95c0.18,0.47,0.33,0.96,0.4,1.46c0,0.17,0,0.34-0.01,0.51
		c-0.38,1.83-2.06,1.23-2.56,0.77c-1.02-0.93-2.05-0.73-3.13-0.76c-1.62-0.04-3.56,0.51-4.76-0.2c-1.35-0.8-0.15-2.98-0.73-4.46
		c-0.07-0.19-0.53-0.23-0.81-0.35c0.09-1.59-0.41-3.77,0.42-4.59c0.84-0.83,3.01-0.33,4.6-0.4C321.35,360.99,321.68,361,322,361z"/>
	<path class="st0" d="M306.92,365.92c0.08-1.39-0.42-3.58,0.43-4.48c1.14-1.19,3.39-0.37,5.16-0.41c2.35-0.06,2.6,0.03,2.41,2.22
		c-0.17,2.08,1.31,3.62,1.19,5.72c-0.11,1.94-0.75,2.23-2.33,2.04c-0.65-0.08-1.32,0-1.97-0.01c-1.47-0.02-3.37,0.5-4.3-0.22
		C306.25,369.8,307.23,367.73,306.92,365.92z"/>
	<path class="st0" d="M334,374c0.06-0.87-0.49-1-1.18-1c-0.94,0-1.88,0-2.82,0c-0.24-1.09-0.91-1.76-2-2c-0.57-0.55-0.39-1.47-1-2
		c-0.88-0.82-0.06-2.2-1-3c-0.58-0.54-0.37-1.48-1-2c0.48-0.39-1.11-1.97,1.06-1.52c2.46,0.51,4.36,2.39,6.9,2.51
		c0.91,0.04,1.01,0.53,1.06,1.25c0.04,0.72-0.37,1.76,0.99,1.77c0.15,0.12,0.3,0.25,0.45,0.37c0.33,0.47,0.54,1,0.74,1.53
		c0.15,0.33,0.27,0.68,0.4,1.02c0.19,0.5,0.34,1.02,0.42,1.55c0,0.18,0,0.35-0.01,0.53C336.53,374.93,334.98,373.62,334,374z"/>
	<path class="st1" d="M282,372c-1.09,0.24-1.76,0.91-2,2c-1.66,0.04-3.35-0.27-4.85,0.95c-0.41,0.34-1.22-0.07-1.15-0.95
		c0-0.17,0.01-0.35,0.01-0.52c0.09-0.52,0.26-1.03,0.45-1.53c0.12-0.35,0.25-0.69,0.39-1.03c0.18-0.55,0.38-1.08,0.7-1.55
		c0.15-0.12,0.3-0.24,0.45-0.37c1.59-1.79,4.52-3.62,6.95-4.5c0.44-0.16,0.79-0.56,1.02,0.03c0.17,0.43,0.03,0.98,0.03,1.47
		c-0.95,0.79-0.11,2.18-1,3C282.06,369.8,282.88,371.18,282,372z"/>
	<path class="st0" d="M272,370c0.69,0.03,1.03-0.31,1-1c0.67,0,1.33,0,2,0c0.14,0.17,0.28,0.34,0.42,0.51
		c0.04,0.86,0.25,1.75-0.42,2.49c-0.61,0.53-0.43,1.45-1,2c-1.1,1.27-2.11,2.64-3.34,3.76c-0.6,0.55-1.56,0.51-1.66-0.76
		c0.01-0.2,0.01-0.39,0.01-0.59c0.11-0.38,0.28-0.74,0.51-1.06c0.16-0.12,0.32-0.23,0.48-0.35c0.16,0,0.45,0.02,0.45,0
		C270.72,373.25,272.14,371.86,272,370z"/>
	<path class="st1" d="M268,373c1.64-0.3,2.3,0.36,2,2c-0.63,0.52-0.42,1.46-1,2c-0.62-0.11-1.08,0.33-0.96,0.76
		c0.48,1.74-0.63,2.19-1.89,2.61c-0.27,0.09-0.56,0.58-0.69,0.53c-0.52-0.23-0.48-0.77-0.46-1.26c0.07-1.65,0.74-3.06,1.99-4.09
		C267.85,374.84,268.15,374.04,268,373z"/>
	<path class="st1" d="M341,369c-0.03,0.69,0.31,1.03,1,1c0.42,1.08,1.43,1.94,1.04,3.32c-0.1,0.35,0.39,0.79,0.96,0.68
		c0.14,0.12,0.29,0.23,0.43,0.35c0.41,0.64,0.58,1.35,0.61,2.1c-0.01,0.18-0.02,0.37-0.04,0.55c0.08,0.97-0.83,1.28-1.23,0.95
		c-1.69-1.42-3.54-2.47-5.57-3.31c-0.55-0.23,0.13-1.74-1.21-1.64c-0.57-0.55-0.39-1.47-1-2c-0.89-0.82-0.05-2.21-1-3
		c0.04-1.19,0.94-1.26,1.58-0.85C337.97,368.02,339.22,369.09,341,369z"/>
	<path class="st0" d="M344,374c0.09-1.5,1.24-0.85,2-1c0,0.8-0.23,1.72,0.69,2.17c1.32,0.64,1.18,2.18,2.02,3.14
		c0.6,0.68,0.57,1.79-0.15,2.63c-0.44-1.21-2.73-0.2-2.58-2.19c0.05-0.71,0.37-1.75-0.98-1.76C344.11,376.18,344.95,374.79,344,374z
		"/>
	<path class="st0" d="M275,369c-0.04-0.49,0.06-0.93,0.66-0.79c0.16,0.04,0.23,0.52,0.34,0.79C275.67,369.45,275.33,369.45,275,369z
		"/>
	<path d="M282,372c0.38-0.98-0.93-2.53,1-3C282.62,369.98,283.93,371.53,282,372z"/>
	<path d="M283,369c0.38-0.98-0.93-2.53,1-3C283.62,366.98,284.93,368.53,283,369z"/>
	<path d="M326,366c1.93,0.47,0.62,2.02,1,3C325.07,368.53,326.38,366.98,326,366z"/>
	<path d="M325,364c1.5,0.09,0.85,1.24,1,2C324.5,365.91,325.15,364.76,325,364z"/>
	<path d="M327,369c1.5,0.09,0.85,1.24,1,2C326.5,370.91,327.15,369.76,327,369z"/>
	<path d="M335,368c1.93,0.47,0.62,2.02,1,3C334.07,370.53,335.38,368.98,335,368z"/>
	<path d="M336,371c1.5,0.09,0.85,1.24,1,2C335.5,372.91,336.15,371.76,336,371z"/>
	<path d="M275,369c0.33,0,0.67,0,1,0c-0.38,0.98,0.93,2.53-1,3C275,371,275,370,275,369z"/>
	<path d="M274,374c0.15-0.76-0.5-1.91,1-2C274.85,372.76,275.5,373.91,274,374z"/>
	<path d="M269,377c0.15-0.76-0.5-1.91,1-2C269.85,375.76,270.5,376.91,269,377z"/>
	<path d="M344,374c1.93,0.47,0.62,2.02,1,3C343.07,376.53,344.38,374.98,344,374z"/>
</g>
</svg>
