<?xml version="1.0" encoding="utf-8"?>
<!-- Generator: Adobe Illustrator 22.1.0, SVG Export Plug-In . SVG Version: 6.00 Build 0)  -->
<svg version="1.1" id="Layer_1" xmlns="http://www.w3.org/2000/svg" xmlns:xlink="http://www.w3.org/1999/xlink" x="0px" y="0px"
	 viewBox="0 0 500 500" style="enable-background:new 0 0 500 500;" xml:space="preserve">
<style type="text/css">
	.st0{fill:none;stroke:#000000;stroke-miterlimit:10;}
	.st1{fill:#F2F2F2;stroke:#000000;stroke-width:2;stroke-miterlimit:10;}
	.st2{fill:none;stroke:#000000;stroke-width:2;stroke-miterlimit:10;}
	.st3{fill:#FF0000;stroke:#000000;stroke-width:2;stroke-miterlimit:10;}
</style>
<path class="st0" d="M351,333"/>
<path class="st1" d="M0,99l18,9l144,0c43.1-1,72-21.2,72-36c0-14.8-28.9-35-72-36c-35.3,0-70.7,0-106,0c-0.7,0-1.3,0-2,0
	c-12,0-24,0-36,0c-6,3-12,6-18,9L0,99z"/>
<path class="st2" d="M18,9"/>
<path class="st2" d="M18,9"/>
<path class="st3" d="M18,36l0-36c0,0,45,18,45,36"/>
<path class="st2" d="M63,108"/>
<path class="st2" d="M18,135"/>
<path class="st2" d="M18,135"/>
<path class="st3" d="M18,108l0,36c0,0,45-18,45-36"/>
<rect x="144" y="45" class="st3" width="18" height="54"/>
<path class="st3" d="M207,99l0-54L207,99z"/>
<path class="st3" d="M207,99c0,0,27-9,27-27c0,0,0-18-27-27"/>
</svg>
