<?xml version="1.0" encoding="utf-8"?>
<!-- Generator: Adobe Illustrator 23.0.3, SVG Export Plug-In . SVG Version: 6.00 Build 0)  -->
<svg version="1.1" id="Layer_1" xmlns="http://www.w3.org/2000/svg" xmlns:xlink="http://www.w3.org/1999/xlink" x="0px" y="0px"
	 viewBox="0 0 500 500" style="enable-background:new 0 0 500 500;" xml:space="preserve">
<style type="text/css">
	.st0{fill:none;stroke:#000000;stroke-miterlimit:10;}
	.st1{fill:#F2F2F2;stroke:#000000;stroke-width:3;stroke-miterlimit:10;}
	.st2{fill:none;stroke:#000000;stroke-width:3;stroke-miterlimit:10;}
	.st3{fill:#FF0000;stroke:#000000;stroke-width:3;stroke-miterlimit:10;}
</style>
<path class="st0" d="M135,288"/>
<path class="st1" d="M2,85.5L21,93l152,0c45.49-0.84,76-17.65,76-30s-30.51-29.16-76-30c-37.31,0-74.61,0-111.92,0
	c-0.69,0-1.39,0-2.08,0c-12.67,0-25.33,0-38,0c-6.33,2.5-12.67,5-19,7.5L2,85.5z"/>
<path class="st2" d="M21,11.57"/>
<path class="st2" d="M21,11.57"/>
<path class="st3" d="M21,33l0-30c0,0,47.5,15,47.5,30"/>
<path class="st2" d="M68.5,93"/>
<path class="st0" d="M18,135"/>
<path class="st0" d="M18,135"/>
<path class="st3" d="M21,93l0,30c0,0,47.5-15,47.5-30"/>
<rect x="154" y="40.5" class="st3" width="19" height="45"/>
<path class="st3" d="M220.5,85.5l0-45L220.5,85.5z"/>
<path class="st3" d="M220.5,85.5c0,0,28.5-7.5,28.5-22.5c0,0,0-15-28.5-22.5"/>
</svg>
