<?xml version="1.0" encoding="utf-8"?>
<!-- Generator: Adobe Illustrator 22.1.0, SVG Export Plug-In . SVG Version: 6.00 Build 0)  -->
<svg version="1.1" id="Layer_1" xmlns="http://www.w3.org/2000/svg" xmlns:xlink="http://www.w3.org/1999/xlink" x="0px" y="0px"
	 viewBox="0 0 500 500" style="enable-background:new 0 0 500 500;" xml:space="preserve">
<style type="text/css">
	.st0{fill:none;stroke:#000000;stroke-miterlimit:10;}
	.st1{fill:#F2F2F2;stroke:#000000;stroke-miterlimit:10;}
	.st2{fill:#FF0000;stroke:#000000;stroke-miterlimit:10;}
</style>
<path class="st0" d="M351,333"/>
<path class="st1" d="M279,306l9-18V144c-1-43.1-21.2-72-36-72c-14.8,0-35,28.9-36,72c0,35.3,0,70.7,0,106c0,0.7,0,1.3,0,2
	c0,12,0,24,0,36c3,6,6,12,9,18H279z"/>
<path class="st0" d="M189,288"/>
<path class="st0" d="M189,288"/>
<path class="st2" d="M216,288h-36c0,0,18-45,36-45"/>
<path class="st0" d="M288,243"/>
<path class="st0" d="M315,288"/>
<path class="st0" d="M315,288"/>
<path class="st2" d="M288,288h36c0,0-18-45-36-45"/>
<rect x="225" y="144" class="st2" width="54" height="18"/>
<path class="st2" d="M279,99h-54H279z"/>
<path class="st2" d="M279,99c0,0-9-27-27-27c0,0-18,0-27,27"/>
</svg>
